<?xml version="1.0" encoding="utf-8"?>
<!-- Generator: Adobe Illustrator 22.0.1, SVG Export Plug-In . SVG Version: 6.00 Build 0)  -->
<svg version="1.1" id="Layer_1" xmlns="http://www.w3.org/2000/svg" xmlns:xlink="http://www.w3.org/1999/xlink" x="0px" y="0px"
	 viewBox="0 0 100 100" style="enable-background:new 0 0 100 100;" xml:space="preserve">
<path d="M50,18.1c3.3,0,6.1-2.7,6.1-6.1S53.4,6,50,6S44,8.7,44,12.1S46.7,18.1,50,18.1z M39.1,60.2l3-13.3l6.4,6.1v18.2h6.1V48.4
	l-6.4-6.1l1.8-9.1c3.9,4.5,10,7.6,16.7,7.6v-6.1c-5.8,0-10.6-3-13-7.3l-3-4.8c-1.2-1.8-3-3-5.2-3c-0.9,0-1.5,0.3-2.4,0.3l-15.8,6.7
	v14.2h6.1V30.5l5.5-2.1L34,53l-14.8-3L17.9,56L39.1,60.2z"/>
<path d="M45.7,85.2L28.3,67.9l-5.9,5.9L45.7,97l50-50l-5.9-5.9L45.7,85.2z"/>
<path d="M24.1,22.3H8.8c-0.3,0-0.5-0.2-0.5-0.5v-0.1c0-0.3,0.2-0.5,0.5-0.5h15.3c0.3,0,0.5,0.2,0.5,0.5v0.1
	C24.6,22.1,24.4,22.3,24.1,22.3z"/>
<path d="M19.8,27.7H4.5c-0.3,0-0.5-0.2-0.5-0.5v-0.1c0-0.3,0.2-0.5,0.5-0.5h15.3c0.3,0,0.5,0.2,0.5,0.5v0.1
	C20.3,27.5,20.1,27.7,19.8,27.7z"/>
<path d="M24.1,33.1H8.8c-0.3,0-0.5-0.2-0.5-0.5v-0.1c0-0.3,0.2-0.5,0.5-0.5h15.3c0.3,0,0.5,0.2,0.5,0.5v0.1
	C24.6,32.9,24.4,33.1,24.1,33.1z"/>
</svg>
