<?xml version="1.0" encoding="utf-8"?>
<!-- Generator: Adobe Illustrator 22.0.1, SVG Export Plug-In . SVG Version: 6.00 Build 0)  -->
<svg version="1.1" id="Layer_1" xmlns="http://www.w3.org/2000/svg" xmlns:xlink="http://www.w3.org/1999/xlink" x="0px" y="0px"
	 viewBox="0 0 400 100" style="enable-background:new 0 0 400 100;" xml:space="preserve">
<style type="text/css">
	.st0{fill:#FF434C;}
	.st1{fill:url(#SVGID_1_);}
	.st2{fill:url(#SVGID_2_);}
	.st3{fill:url(#SVGID_3_);}
	.st4{fill:url(#SVGID_4_);}
	.st5{fill:url(#SVGID_5_);}
	.st6{fill:url(#SVGID_6_);}
	.st7{fill:url(#SVGID_7_);}
	.st8{fill:url(#SVGID_8_);}
</style>
<g>
	<g>
		<path d="M357.5,34.1c1.9,0,3.4-1.5,3.4-3.4c0-1.9-1.5-3.4-3.4-3.4c-1.9,0-3.4,1.5-3.4,3.4C354.1,32.6,355.6,34.1,357.5,34.1z
			 M351.4,57.7l1.7-7.5l3.6,3.4v10.2h3.4V51.1l-3.6-3.4l1-5.1c2.2,2.5,5.6,4.2,9.3,4.2v-3.4c-3.2,0-5.9-1.7-7.3-4.1l-1.7-2.7
			c-0.7-1-1.7-1.7-2.9-1.7c-0.5,0-0.8,0.2-1.4,0.2l-8.8,3.7v8h3.4v-5.8l3-1.2l-2.7,13.7l-8.3-1.7l-0.7,3.4L351.4,57.7z"/>
		<path d="M355.1,71.6l-9.7-9.7l-3.3,3.3l13,13L383,50.3l-3.3-3.3L355.1,71.6z"/>
		<path d="M343.2,36.4h-8.9c0,0-0.1,0-0.1-0.1v-0.4c0,0,0-0.1,0.1-0.1h8.9c0,0,0.1,0,0.1,0.1L343.2,36.4
			C343.3,36.4,343.2,36.4,343.2,36.4z"/>
		<path d="M340.8,39.5h-8.9c0,0-0.1,0-0.1-0.1V39c0,0,0-0.1,0.1-0.1h8.9c0,0,0.1,0,0.1,0.1L340.8,39.5
			C340.9,39.4,340.8,39.5,340.8,39.5z"/>
		<path d="M343.2,42.5h-8.9c0,0-0.1,0-0.1-0.1V42c0,0,0-0.1,0.1-0.1h8.9c0,0,0.1,0,0.1,0.1L343.2,42.5
			C343.3,42.5,343.2,42.5,343.2,42.5z"/>
	</g>
	<g>
		<path class="st0" d="M357.5,34.1c1.9,0,3.4-1.5,3.4-3.4c0-1.9-1.5-3.4-3.4-3.4c-1.9,0-3.4,1.5-3.4,3.4
			C354.1,32.6,355.6,34.1,357.5,34.1z M351.4,57.7l1.7-7.5l3.6,3.4v10.2h3.4V51.1l-3.6-3.4l1-5.1c2.2,2.5,5.6,4.2,9.3,4.2v-3.4
			c-3.2,0-5.9-1.7-7.3-4.1l-1.7-2.7c-0.7-1-1.7-1.7-2.9-1.7c-0.5,0-0.8,0.2-1.4,0.2l-8.8,3.7v8h3.4v-5.8l3-1.2l-2.7,13.7l-8.3-1.7
			l-0.7,3.4L351.4,57.7z"/>
		<path class="st0" d="M355.1,71.6l-9.7-9.7l-3.3,3.3l13,13L383,50.3l-3.3-3.3L355.1,71.6z"/>
		<path class="st0" d="M343.2,36.4h-8.9c0,0-0.1,0-0.1-0.1v-0.4c0,0,0-0.1,0.1-0.1h8.9c0,0,0.1,0,0.1,0.1L343.2,36.4
			C343.3,36.4,343.2,36.4,343.2,36.4z"/>
		<path class="st0" d="M340.8,39.5h-8.9c0,0-0.1,0-0.1-0.1V39c0,0,0-0.1,0.1-0.1h8.9c0,0,0.1,0,0.1,0.1L340.8,39.5
			C340.9,39.4,340.8,39.5,340.8,39.5z"/>
		<path class="st0" d="M343.2,42.5h-8.9c0,0-0.1,0-0.1-0.1V42c0,0,0-0.1,0.1-0.1h8.9c0,0,0.1,0,0.1,0.1L343.2,42.5
			C343.3,42.5,343.2,42.5,343.2,42.5z"/>
	</g>
</g>
<g>
	<g>
		<linearGradient id="SVGID_1_" gradientUnits="userSpaceOnUse" x1="28.8053" y1="46.0742" x2="292.5872" y2="46.0742">
			<stop  offset="0" style="stop-color:#00C7FF"/>
			<stop  offset="0.5" style="stop-color:#7D2F80"/>
			<stop  offset="1" style="stop-color:#FF434C"/>
		</linearGradient>
		<path class="st1" d="M47,53.4v-11h22.6v22.6c-4.3,3.3-8.1,5.5-11.5,6.7c-3.3,1.2-7.3,1.8-11.8,1.8c-5.6,0-10.2-1.1-13.7-3.2
			c-3.5-2.1-6.3-5.3-8.2-9.6c-1.9-4.2-2.9-9.1-2.9-14.6c0-5.8,1.1-10.8,3.2-15.1c2.1-4.3,5.2-7.5,9.3-9.7c3.2-1.7,7.5-2.6,12.9-2.6
			c5.2,0,9.1,0.5,11.7,1.6c2.6,1.1,4.7,2.7,6.4,4.9c1.7,2.2,3,5,3.9,8.5l-14.1,2.8c-0.6-2-1.6-3.5-2.9-4.6c-1.4-1.1-3.2-1.6-5.3-1.6
			c-3.2,0-5.8,1.2-7.7,3.7C37,36.6,36,40.5,36,45.9c0,5.7,1,9.8,2.9,12.3c1.9,2.5,4.6,3.7,8,3.7c1.6,0,3.2-0.3,4.7-0.8
			c1.5-0.5,3.2-1.4,5.1-2.7v-5H47z"/>
		<linearGradient id="SVGID_2_" gradientUnits="userSpaceOnUse" x1="28.8053" y1="46.0742" x2="292.5872" y2="46.0742">
			<stop  offset="0" style="stop-color:#00C7FF"/>
			<stop  offset="0.5" style="stop-color:#7D2F80"/>
			<stop  offset="1" style="stop-color:#FF434C"/>
		</linearGradient>
		<path class="st2" d="M73.8,54c0-6,1.5-10.8,4.5-14.1c3-3.4,7.2-5.1,12.6-5.1c5.5,0,9.7,1.7,12.7,5c3,3.3,4.5,7.9,4.5,13.9
			c0,4.3-0.7,7.9-2,10.6s-3.2,4.9-5.6,6.5s-5.5,2.3-9.2,2.3c-3.7,0-6.8-0.7-9.3-2c-2.4-1.3-4.4-3.4-5.9-6.3
			C74.6,62,73.8,58.4,73.8,54z M84,54.1c0,3.7,0.6,6.4,1.9,8.1c1.2,1.6,2.9,2.5,5.1,2.5c2.2,0,3.9-0.8,5.1-2.4
			c1.2-1.6,1.8-4.5,1.8-8.6c0-3.5-0.6-6-1.9-7.6c-1.3-1.6-3-2.4-5.1-2.4c-2.1,0-3.7,0.8-5,2.5C84.6,47.6,84,50.3,84,54.1z"/>
		<linearGradient id="SVGID_3_" gradientUnits="userSpaceOnUse" x1="28.8053" y1="46.0742" x2="292.5872" y2="46.0742">
			<stop  offset="0" style="stop-color:#00C7FF"/>
			<stop  offset="0.5" style="stop-color:#7D2F80"/>
			<stop  offset="1" style="stop-color:#FF434C"/>
		</linearGradient>
		<path class="st3" d="M132.7,66.4h-11.6l-1.6,6.1h-10.4l12.4-37h11.1l12.4,37h-10.7L132.7,66.4z M130.6,58.4L127,45.1l-3.6,13.3
			H130.6z"/>
		<linearGradient id="SVGID_4_" gradientUnits="userSpaceOnUse" x1="28.8053" y1="46.0742" x2="292.5872" y2="46.0742">
			<stop  offset="0" style="stop-color:#00C7FF"/>
			<stop  offset="0.5" style="stop-color:#7D2F80"/>
			<stop  offset="1" style="stop-color:#FF434C"/>
		</linearGradient>
		<path class="st4" d="M147.2,35.5h10.2v27.9h15.9v9.1h-26.2V35.5z"/>
		<linearGradient id="SVGID_5_" gradientUnits="userSpaceOnUse" x1="28.8053" y1="46.0742" x2="292.5872" y2="46.0742">
			<stop  offset="0" style="stop-color:#00C7FF"/>
			<stop  offset="0.5" style="stop-color:#7D2F80"/>
			<stop  offset="1" style="stop-color:#FF434C"/>
		</linearGradient>
		<path class="st5" d="M178.5,19.6h21.7c4.3,0,7.7,0.6,10.4,1.9c2.6,1.3,4.8,3.2,6.5,5.6c1.7,2.4,3,5.3,3.7,8.5
			c0.8,3.2,1.2,6.6,1.2,10.3c0,5.7-0.6,10-1.7,13.2c-1.1,3.1-2.7,5.7-4.8,7.8s-4.2,3.5-6.6,4.2c-3.2,1-6.1,1.4-8.7,1.4h-21.7V19.6z
			 M193.1,31.6v28.9h3.6c3.1,0,5.2-0.4,6.5-1.1s2.3-2.1,3-4c0.7-1.9,1.1-5,1.1-9.2c0-5.6-0.8-9.4-2.4-11.5c-1.6-2.1-4.3-3.1-8.1-3.1
			H193.1z"/>
		<linearGradient id="SVGID_6_" gradientUnits="userSpaceOnUse" x1="28.8053" y1="46.0742" x2="292.5872" y2="46.0742">
			<stop  offset="0" style="stop-color:#00C7FF"/>
			<stop  offset="0.5" style="stop-color:#7D2F80"/>
			<stop  offset="1" style="stop-color:#FF434C"/>
		</linearGradient>
		<path class="st6" d="M246.9,66.4h-11.6l-1.6,6.1h-10.4l12.4-37h11.1l12.4,37h-10.7L246.9,66.4z M244.8,58.4l-3.7-13.3l-3.6,13.3
			H244.8z"/>
		<linearGradient id="SVGID_7_" gradientUnits="userSpaceOnUse" x1="28.8053" y1="46.0742" x2="292.5872" y2="46.0742">
			<stop  offset="0" style="stop-color:#00C7FF"/>
			<stop  offset="0.5" style="stop-color:#7D2F80"/>
			<stop  offset="1" style="stop-color:#FF434C"/>
		</linearGradient>
		<path class="st7" d="M259.5,60.3l9.7-0.7c0.2,1.8,0.6,3.1,1.3,4c1.1,1.5,2.6,2.2,4.5,2.2c1.5,0,2.6-0.4,3.4-1.1
			c0.8-0.8,1.2-1.7,1.2-2.7c0-1-0.4-1.8-1.1-2.6s-2.5-1.5-5.2-2.1c-4.5-1.1-7.7-2.6-9.6-4.5c-1.9-1.9-2.9-4.3-2.9-7.1
			c0-1.9,0.5-3.7,1.5-5.4c1-1.7,2.5-3,4.4-4c2-1,4.7-1.5,8.1-1.5c4.2,0,7.4,0.9,9.7,2.6c2.2,1.8,3.5,4.6,4,8.4l-9.6,0.6
			c-0.3-1.7-0.8-2.9-1.6-3.6c-0.8-0.8-2-1.1-3.4-1.1c-1.2,0-2.1,0.3-2.7,0.8c-0.6,0.6-0.9,1.3-0.9,2.1c0,0.6,0.2,1.1,0.7,1.6
			c0.5,0.5,1.6,0.9,3.4,1.4c4.5,1.1,7.7,2.2,9.6,3.3c1.9,1.1,3.3,2.5,4.2,4.1s1.3,3.5,1.3,5.5c0,2.4-0.6,4.6-1.8,6.6
			c-1.2,2-2.8,3.5-4.9,4.6c-2.1,1-4.8,1.6-8,1.6c-5.6,0-9.5-1.2-11.7-3.6C261,67.1,259.8,64,259.5,60.3z"/>
		<linearGradient id="SVGID_8_" gradientUnits="userSpaceOnUse" x1="28.8053" y1="46.0742" x2="292.5872" y2="46.0742">
			<stop  offset="0" style="stop-color:#00C7FF"/>
			<stop  offset="0.5" style="stop-color:#7D2F80"/>
			<stop  offset="1" style="stop-color:#FF434C"/>
		</linearGradient>
		<path class="st8" d="M293.6,35.5h10.2v13H315v-13h10.3v37H315v-15h-11.2v15h-10.2V35.5z"/>
	</g>
</g>
</svg>
