<?xml version="1.0" encoding="utf-8"?>
<!-- Generator: Adobe Illustrator 22.0.1, SVG Export Plug-In . SVG Version: 6.00 Build 0)  -->
<svg version="1.1" id="Layer_1" xmlns="http://www.w3.org/2000/svg" xmlns:xlink="http://www.w3.org/1999/xlink" x="0px" y="0px"
	 viewBox="0 0 32 32" style="enable-background:new 0 0 32 32;" xml:space="preserve">
<style type="text/css">
	.st0{fill:url(#SVGID_1_);}
	.st1{fill:url(#SVGID_2_);}
	.st2{fill:url(#SVGID_3_);}
	.st3{fill:url(#SVGID_4_);}
	.st4{fill:url(#SVGID_5_);}
	.st5{fill:url(#SVGID_6_);}
	.st6{fill:url(#SVGID_7_);}
	.st7{fill:url(#SVGID_8_);}
	.st8{fill:url(#SVGID_9_);}
	.st9{opacity:0.39;fill:url(#SVGID_10_);}
	.st10{fill:url(#SVGID_11_);}
	.st11{fill:url(#SVGID_12_);}
	.st12{fill:url(#SVGID_13_);}
	.st13{fill:url(#SVGID_14_);}
	.st14{opacity:0.3;fill:url(#SVGID_15_);}
</style>
<g>
	<linearGradient id="SVGID_1_" gradientUnits="userSpaceOnUse" x1="5.0127" y1="2.9907" x2="27.0509" y2="26.0539">
		<stop  offset="6.060610e-03" style="stop-color:#1D1D1B"/>
		<stop  offset="1" style="stop-color:#3C3C3B"/>
	</linearGradient>
	<polygon class="st0" points="19.4,12.9 16,14.9 16,18.8 17.8,19.8 16.1,20.8 13.1,19.1 13.1,10.1 16.1,8.3 22.4,12 25.8,10.1 
		25.8,6.1 16.1,0.5 6.3,6.1 6.3,23 16.1,28.6 25.8,23 25.8,16.6 	"/>
	<linearGradient id="SVGID_2_" gradientUnits="userSpaceOnUse" x1="33.6495" y1="20.159" x2="6.7857" y2="10.4106">
		<stop  offset="6.060610e-03" style="stop-color:#1D1D1B"/>
		<stop  offset="1" style="stop-color:#3C3C3B"/>
	</linearGradient>
	<polygon class="st1" points="16.1,0.5 8.7,24.4 6.3,6.1 	"/>
	<linearGradient id="SVGID_3_" gradientUnits="userSpaceOnUse" x1="22.1105" y1="14.3773" x2="19.5894" y2="17.3024">
		<stop  offset="6.060610e-03" style="stop-color:#1D1D1B"/>
		<stop  offset="1" style="stop-color:#3C3C3B"/>
	</linearGradient>
	<polygon class="st2" points="25.8,16.6 16,14.9 19.4,12.9 	"/>
	<linearGradient id="SVGID_4_" gradientUnits="userSpaceOnUse" x1="19.8578" y1="21.3733" x2="21.5024" y2="12.7232">
		<stop  offset="6.060610e-03" style="stop-color:#1D1D1B"/>
		<stop  offset="1" style="stop-color:#3C3C3B"/>
	</linearGradient>
	<polygon class="st3" points="25.8,16.6 16,14.9 17.8,19.8 	"/>
	<linearGradient id="SVGID_5_" gradientUnits="userSpaceOnUse" x1="21.2659" y1="24.3374" x2="24.3605" y2="8.0607">
		<stop  offset="6.060610e-03" style="stop-color:#1D1D1B"/>
		<stop  offset="1" style="stop-color:#3C3C3B"/>
	</linearGradient>
	<polygon class="st4" points="25.8,23 19.4,12.9 17.8,19.8 	"/>
	<linearGradient id="SVGID_6_" gradientUnits="userSpaceOnUse" x1="20.3453" y1="23.413" x2="21.2639" y2="21.17">
		<stop  offset="6.060610e-03" style="stop-color:#1D1D1B"/>
		<stop  offset="1" style="stop-color:#3C3C3B"/>
	</linearGradient>
	<polygon class="st5" points="25.8,23 16.1,20.8 17.8,19.8 	"/>
	<linearGradient id="SVGID_7_" gradientUnits="userSpaceOnUse" x1="21.3394" y1="20.205" x2="19.5775" y2="28.1177">
		<stop  offset="6.060610e-03" style="stop-color:#1D1D1B"/>
		<stop  offset="1" style="stop-color:#3C3C3B"/>
	</linearGradient>
	<polygon class="st6" points="25.8,23 16.1,20.8 16.1,28.6 	"/>
	<linearGradient id="SVGID_8_" gradientUnits="userSpaceOnUse" x1="14.8771" y1="20.104" x2="11.2463" y2="25.7851">
		<stop  offset="6.060610e-03" style="stop-color:#1D1D1B"/>
		<stop  offset="1" style="stop-color:#3C3C3B"/>
	</linearGradient>
	<polygon class="st7" points="6.4,23 16.1,20.8 16.1,28.6 	"/>
	<linearGradient id="SVGID_9_" gradientUnits="userSpaceOnUse" x1="8.6964" y1="15.9577" x2="11.1558" y2="21.7631">
		<stop  offset="6.060610e-03" style="stop-color:#1D1D1B"/>
		<stop  offset="1" style="stop-color:#3C3C3B"/>
	</linearGradient>
	<polygon class="st8" points="6.4,23 16.1,20.8 7.6,16 	"/>
	<linearGradient id="SVGID_10_" gradientUnits="userSpaceOnUse" x1="9.3222" y1="16.554" x2="15.7612" y2="16.2977">
		<stop  offset="6.060610e-03" style="stop-color:#1D1D1B"/>
		<stop  offset="1" style="stop-color:#3C3C3B"/>
	</linearGradient>
	<polygon class="st9" points="6.4,23 13.1,19.1 13.1,10.1 	"/>
	<linearGradient id="SVGID_11_" gradientUnits="userSpaceOnUse" x1="23.825" y1="12.9549" x2="20.6311" y2="27.2983">
		<stop  offset="6.060610e-03" style="stop-color:#1D1D1B"/>
		<stop  offset="1" style="stop-color:#3C3C3B"/>
	</linearGradient>
	<polygon class="st10" points="25.8,23 25.8,16.6 16.1,28.6 	"/>
	<linearGradient id="SVGID_12_" gradientUnits="userSpaceOnUse" x1="17.7385" y1="-0.3836" x2="21.303" y2="8.0656">
		<stop  offset="6.060610e-03" style="stop-color:#1D1D1B"/>
		<stop  offset="1" style="stop-color:#3C3C3B"/>
	</linearGradient>
	<polygon class="st11" points="16.1,0.5 16.1,8.3 25.8,6.1 	"/>
	<linearGradient id="SVGID_13_" gradientUnits="userSpaceOnUse" x1="20.5669" y1="6.3207" x2="22.8915" y2="11.831">
		<stop  offset="6.060610e-03" style="stop-color:#1D1D1B"/>
		<stop  offset="1" style="stop-color:#3C3C3B"/>
	</linearGradient>
	<polygon class="st12" points="22.4,12 16.1,8.3 25.8,6.1 	"/>
	<linearGradient id="SVGID_14_" gradientUnits="userSpaceOnUse" x1="18.4045" y1="-0.761" x2="23.5949" y2="11.5424">
		<stop  offset="6.060610e-03" style="stop-color:#1D1D1B"/>
		<stop  offset="1" style="stop-color:#3C3C3B"/>
	</linearGradient>
	<polygon class="st13" points="22.4,12 16.1,0.5 25.8,10.1 	"/>
	<linearGradient id="SVGID_15_" gradientUnits="userSpaceOnUse" x1="15.2166" y1="4.6951" x2="6.8879" y2="7.1699">
		<stop  offset="6.060610e-03" style="stop-color:#1D1D1B"/>
		<stop  offset="1" style="stop-color:#3C3C3B"/>
	</linearGradient>
	<polygon class="st14" points="16.1,0.5 16.1,8.3 6.4,6.1 	"/>
</g>
</svg>
