<svg width="100" height="100" xmlns="http://www.w3.org/2000/svg">

 <g>
  <title>background</title>
  <rect fill="none" id="canvas_background" height="102" width="102" y="-1" x="-1"/>
 </g>
 <g>
  <title>Layer 1</title>
  <g opacity="0.5" stroke="null" id="svg_41">
   <path fill="#4c4c4c" stroke="null" id="svg_40" d="m46.87967,82.71639l-17.76432,-16.95911l-6.04924,5.73438l23.81356,22.73415l51.12035,-48.80319l-6.00664,-5.73438l-45.11371,43.02815z"/>
  </g>
  <g stroke="null" id="svg_8">
   <path fill="#ffffff" stroke="null" id="svg_7" d="m46.87967,81.96639l-17.76432,-16.95911l-6.04924,5.73438l23.81356,22.73415l51.12035,-48.80319l-6.00664,-5.73438l-45.11371,43.02815z"/>
  </g>
  <path opacity="0.5" fill="#4c4c4c" stroke="null" id="svg_42" d="m51.63678,26.79632c3.76459,0 6.84472,-2.17933 6.84472,-4.84296s-3.08013,-4.84295 -6.84472,-4.84295s-6.84472,2.17933 -6.84472,4.84295s3.08012,4.84296 6.84472,4.84296zm-12.3205,33.65852l3.42236,-10.6545l7.18696,4.84295l0,14.52886l6.84472,0l0,-18.16107l-7.18696,-4.84295l2.05342,-7.26443c4.44906,3.63221 11.29378,6.05369 18.82297,6.05369l0,-4.84295c-6.50248,0 -11.97825,-2.42148 -14.71614,-5.81155l-3.42236,-3.87436c-1.36895,-1.45288 -3.42236,-2.42148 -5.81801,-2.42148c-1.02671,0 -1.71118,0.24215 -2.73789,0.24215l-17.79627,5.32725l0,11.38094l6.84472,0l0,-8.23302l6.16024,-1.69503l-5.47577,19.61395l-16.76956,-2.42147l-1.36895,4.84295l23.95652,3.39007z"/>
  <path fill="#ffffff" stroke="null" id="svg_2" d="m51.136775,26.296317c3.764596,0 6.84472,-2.179329 6.84472,-4.842952s-3.080124,-4.842952 -6.84472,-4.842952s-6.84472,2.179329 -6.84472,4.842952s3.080124,4.842952 6.84472,4.842952zm-12.320495,33.658519l3.42236,-10.654495l7.186956,4.842952l0,14.528857l6.84472,0l0,-18.161072l-7.186956,-4.842952l2.053416,-7.264429c4.449068,3.632214 11.293787,6.053691 18.822979,6.053691l0,-4.842952c-6.502484,0 -11.978259,-2.421476 -14.716147,-5.811543l-3.42236,-3.874362c-1.368944,-1.452886 -3.42236,-2.421476 -5.818012,-2.421476c-1.026708,0 -1.71118,0.242148 -2.737888,0.242148l-17.796271,5.327248l0,11.380938l6.84472,0l0,-8.233019l6.160248,-1.695033l-5.475776,19.613957l-16.769563,-2.421476l-1.368944,4.842952l23.956518,3.390067z"/>
  <rect opacity="0.5" stroke="null" id="svg_43" height="1" width="15" y="31.838011" x="4.909758" stroke-opacity="null" stroke-width="null" fill="#4c4c4c"/>
  <rect stroke="null" id="svg_9" height="1" width="15" y="31.588011" x="4.409758" stroke-opacity="null" stroke-width="null" fill="#ffffff"/>
  <rect opacity="0.5" stroke="null" id="svg_44" height="1" width="15" y="37.338012" x="8.659758" stroke-opacity="null" stroke-width="null" fill="#4c4c4c"/>
  <rect stroke="null" id="svg_11" height="1" width="15" y="37.088012" x="8.159758" stroke-opacity="null" stroke-width="null" fill="#ffffff"/>
  <rect opacity="0.5" stroke="null" id="svg_45" height="1" width="15" y="26.838011" x="8.659758" stroke-opacity="null" stroke-width="null" fill="#4c4c4c"/>
  <rect stroke="null" id="svg_13" height="1" width="15" y="26.588011" x="8.159758" stroke-opacity="null" stroke-width="null" fill="#ffffff"/>
 </g>
</svg>